<svg width="56" height="56" viewBox="0 0 56 56" fill="none" xmlns="http://www.w3.org/2000/svg">
<g id="Frame">
<path id="Vector" d="M46.0392 49.762H10.5306C8.44102 49.762 6.74133 48.0689 6.74133 45.9875C6.74133 44.9856 7.55672 44.1735 8.56243 44.1735C9.56813 44.1735 10.3835 44.9856 10.3835 45.9875C10.3835 46.064 10.4535 46.1335 10.5301 46.1335H46.0387C46.1152 46.1335 46.1852 46.064 46.1852 45.9875C46.1852 44.9856 47.0006 44.1735 48.0063 44.1735C49.012 44.1735 49.8274 44.9856 49.8274 45.9875C49.8285 48.0689 48.1288 49.762 46.0392 49.762ZM32.2716 16.1451H23.345C22.3393 16.1451 21.5239 15.3329 21.5239 14.3311C21.5239 13.3292 22.3393 12.5171 23.345 12.5171H32.2711C33.2768 12.5171 34.0922 13.3292 34.0922 14.3311C34.0922 15.3329 33.2773 16.1451 32.2716 16.1451Z" fill="white"/>
<path id="Vector_2" d="M8.05546 17.4756C7.69015 17.4756 7.32156 17.3668 7.00164 17.1398C6.18187 16.5591 5.98992 15.4265 6.57289 14.61L15.8834 5.46132C16.2181 4.99265 16.7562 4.70991 17.3332 4.69897C17.9189 4.68968 18.4587 4.95054 18.8109 5.40608L24.7439 13.0848C25.3575 13.8788 25.2087 15.018 24.4114 15.6288C23.6146 16.2402 22.4705 16.092 21.8575 15.2974L17.4256 9.56179L9.54132 16.7127C9.1864 17.2104 8.62476 17.4756 8.05546 17.4756ZM48.2201 17.1896C47.6645 17.1896 47.116 16.9375 46.7584 16.4595L38.3048 9.21343L33.7274 15.2805C33.1231 16.0816 31.9812 16.243 31.1773 15.6409C30.3729 15.0387 30.211 13.9018 30.8153 13.1006L36.8544 5.09546C37.1984 4.63937 37.7382 4.37085 38.3108 4.37085H38.3146C38.8883 4.37194 39.4286 4.64265 39.7715 5.10093L49.6798 14.2906C50.2808 15.094 50.114 16.2304 49.3079 16.8292C48.9936 17.0635 48.6121 17.1899 48.2201 17.1896ZM21.8881 33.4263C20.8824 33.4263 20.067 32.6142 20.067 31.6123V26.2907C20.067 25.2888 20.8824 24.4767 21.8881 24.4767C22.8938 24.4767 23.7092 25.2888 23.7092 26.2907V31.6123C23.7092 32.6142 22.8938 33.4263 21.8881 33.4263ZM34.9426 33.1846C33.9369 33.1846 33.1215 32.3725 33.1215 31.3706V26.049C33.1215 25.0471 33.9369 24.235 34.9426 24.235C35.9483 24.235 36.7637 25.0471 36.7637 26.049V31.3706C36.7642 32.3725 35.9488 33.1846 34.9426 33.1846ZM9.13882 40.7047C6.05882 40.7047 3.55359 38.2093 3.55359 35.1413V27.4009C3.55359 24.3334 6.05937 21.8375 9.13882 21.8375C12.2183 21.8375 14.7241 24.3334 14.7241 27.4009V35.1413C14.7241 38.2087 12.2183 40.7047 9.13882 40.7047ZM9.13882 25.4655C8.06749 25.4655 7.19632 26.3333 7.19632 27.4003V35.1408C7.19632 36.2077 8.06804 37.0756 9.13882 37.0756C10.2096 37.0756 11.0813 36.2077 11.0813 35.1408V27.4009C11.0813 26.3339 10.2102 25.4655 9.13882 25.4655ZM46.4778 40.7047C43.3978 40.7047 40.8926 38.2093 40.8926 35.1413V27.4009C40.8926 24.3334 43.3983 21.8375 46.4778 21.8375C49.5578 21.8375 52.063 24.3334 52.063 27.4009V35.1413C52.0636 38.2087 49.5578 40.7047 46.4778 40.7047ZM46.4778 25.4655C45.4065 25.4655 44.5353 26.3333 44.5353 27.4003V35.1408C44.5353 36.2077 45.407 37.0756 46.4778 37.0756C47.5491 37.0756 48.4203 36.2077 48.4203 35.1408V27.4009C48.4209 26.3339 47.5491 25.4655 46.4778 25.4655Z" fill="white"/>
<path id="Vector_3" d="M28.6879 42.6394H20.7927C16.3963 42.6394 11.7233 39.5047 11.5264 39.3713C10.6952 38.8074 10.4797 37.6792 11.0457 36.8507C11.6117 36.0228 12.7432 35.8078 13.575 36.3711C13.6357 36.4121 17.5366 39.0114 20.7927 39.0114H28.6874C29.6931 39.0114 30.5085 39.8235 30.5085 40.8254C30.509 41.8273 29.6936 42.6394 28.6879 42.6394ZM8.10134 20.5418C7.05462 20.5418 6.20642 19.6936 6.20642 18.6469V15.994C6.20642 14.9473 7.05462 14.0991 8.10134 14.0991C9.14806 14.0991 9.99626 14.9473 9.99626 15.994V18.6469C9.99626 19.6931 9.14751 20.5418 8.10134 20.5418ZM48.2737 20.2892C47.227 20.2892 46.3788 19.441 46.3788 18.3942V15.7414C46.3788 14.6946 47.227 13.8464 48.2737 13.8464C49.3204 13.8464 50.1686 14.6946 50.1686 15.7414V18.3942C50.1686 19.4404 49.3199 20.2892 48.2737 20.2892ZM8.60666 48.5867C7.55994 48.5867 6.71173 47.7385 6.71173 46.6917V44.0389C6.71173 42.9921 7.55994 42.1439 8.60666 42.1439C9.65337 42.1439 10.5016 42.9921 10.5016 44.0389V46.6917C10.5016 47.7385 9.65283 48.5867 8.60666 48.5867ZM48.021 48.334C46.9743 48.334 46.1261 47.4858 46.1261 46.4391V43.7862C46.1261 42.7395 46.9743 41.8913 48.021 41.8913C49.0677 41.8913 49.916 42.7395 49.916 43.7862V46.4391C49.916 47.4858 49.0672 48.334 48.021 48.334Z" fill="white"/>
</g>
</svg>
