<svg width="42" height="42" viewBox="0 0 42 42" fill="none" xmlns="http://www.w3.org/2000/svg">
<g id="Frame">
<path id="Vector" d="M14.9816 15.9079V13.3162C14.9816 12.6347 14.4292 12.0823 13.7477 12.0823C13.0661 12.0823 12.5137 12.6347 12.5137 13.3162V15.9079C12.5137 16.5894 13.0661 17.1419 13.7477 17.1419C14.4292 17.1419 14.9816 16.5894 14.9816 15.9079Z" fill="white"/>
<path id="Vector_2" d="M29.2111 15.9079V13.3162C29.2111 12.6347 28.6586 12.0823 27.9772 12.0823C27.2957 12.0823 26.7432 12.6347 26.7432 13.3162V15.9079C26.7432 16.5894 27.2957 17.1419 27.9772 17.1419C28.6586 17.1419 29.2111 16.5894 29.2111 15.9079Z" fill="white"/>
<path id="Vector_3" d="M28.8004 22.1059C29.039 21.6539 28.8661 21.0939 28.4142 20.8552C27.962 20.6165 27.4023 20.7895 27.1635 21.2414C25.978 23.4864 23.6652 24.881 21.1279 24.881C18.6544 24.881 16.3696 23.5374 15.1649 21.3745C14.9162 20.9279 14.3526 20.7676 13.906 21.0163C13.4594 21.2649 13.2991 21.8287 13.5478 22.2752C15.0788 25.0243 17.9834 26.7321 21.1278 26.7321C24.3534 26.7321 27.2934 24.9595 28.8004 22.1059Z" fill="white"/>
<path id="Vector_4" d="M40.6252 15.3338C39.8538 14.5262 38.7984 14.0689 37.4826 13.9697C36.7715 10.7379 35.2274 7.77039 32.9629 5.36257C31.4003 3.70093 29.5792 2.39577 27.5501 1.48324C25.4449 0.536411 23.2083 0.0563965 20.9025 0.0563965C18.5971 0.0563965 16.3607 0.536453 14.2556 1.4832C12.2267 2.39581 10.4057 3.70097 8.84316 5.36253C6.60801 7.73939 5.07476 10.6614 4.35145 13.8449C3.10088 13.9652 2.09222 14.4173 1.34855 15.1959C0.369333 16.2211 -0.080395 17.7589 0.0117624 19.7669C0.116612 22.043 0.829659 23.6755 2.13109 24.6192C2.70343 25.0342 3.70342 25.586 5.77001 25.586C6.11438 25.586 6.41423 25.3975 6.57358 25.1185C6.90421 24.8716 7.04019 24.4246 6.8759 24.0256C6.03861 21.9915 5.72724 20.3867 5.72724 18.1041C5.72724 13.7668 7.31277 9.69212 10.1917 6.63065C13.0558 3.58485 16.8597 1.90742 20.9026 1.90742C24.946 1.90742 28.7502 3.58485 31.6145 6.63061C34.4935 9.69204 36.0792 13.7667 36.0792 18.104C36.0792 24.2174 32.8511 29.7896 27.7865 32.5421C27.387 32.1875 26.8614 31.9719 26.2852 31.9719C25.0362 31.9719 24.0232 32.9847 24.0232 34.2338C24.0232 35.4836 25.0362 36.4964 26.2852 36.4964C27.535 36.4964 28.5479 35.4835 28.5479 34.2338C31.2046 32.8186 33.4636 30.6945 35.1145 28.0491C35.5801 27.3029 35.99 26.5256 36.343 25.7232C37.3265 25.7131 38.7025 25.5841 39.8428 24.7572C41.1442 23.8135 41.8572 22.181 41.9621 19.9048C42.0542 17.8969 41.6045 16.359 40.6252 15.3338ZM1.86086 19.6818C1.79279 18.1987 2.07077 17.1196 2.68709 16.4744C3.01722 16.1288 3.46302 15.893 4.01755 15.7679C3.92439 16.5366 3.87613 17.3163 3.87613 18.104C3.87613 20.2208 4.13174 21.8715 4.76445 23.6824C3.31062 23.5002 2.00115 22.727 1.86086 19.6818ZM40.1129 19.8198C39.9676 22.9743 38.5676 23.6909 37.0522 23.8379C37.6312 22.004 37.9301 20.0718 37.9301 18.104C37.9301 17.3528 37.8871 16.6085 37.8023 15.8743C38.429 15.9888 38.9267 16.2353 39.2867 16.6124C39.903 17.2576 40.181 18.3368 40.1129 19.8198Z" fill="white"/>
</g>
</svg>
