<svg width="28" height="28" viewBox="0 0 28 28" fill="none" xmlns="http://www.w3.org/2000/svg">
<g id="Frame" clip-path="url(#clip0_304_505)">
<path id="Vector" d="M3.30563 12.6082H12.7006V3.7352C12.7006 1.99539 11.3087 0.429565 9.39495 0.429565H3.30563C1.39184 0.429565 0 1.99539 0 3.7352V9.47656C0 11.2164 1.39184 12.6082 3.30563 12.6082ZM27.8369 9.47656V3.7352C27.8369 1.99539 26.445 0.429565 24.5313 0.429565H18.4419C16.7021 0.429565 15.1363 1.82141 15.1363 3.7352V12.7822H24.5313C26.445 12.6082 27.8369 11.2164 27.8369 9.47656ZM18.6159 27.5705H24.8792C26.619 27.5705 28.0109 26.1787 28.0109 24.2649V18.5235C28.0109 16.7837 26.619 15.2179 24.7052 15.2179H15.3103V24.2649C15.3103 26.0047 16.7021 27.5705 18.6159 27.5705ZM3.30563 27.5705H9.39495C11.1348 27.5705 12.7006 26.1787 12.7006 24.2649V15.3919H3.30563C1.56583 15.3919 0 16.7837 0 18.6975V24.4389C0 26.0047 1.39184 27.5705 3.30563 27.5705Z" fill="white"/>
</g>
<defs>
<clipPath id="clip0_304_505">
<rect width="28" height="28" fill="white"/>
</clipPath>
</defs>
</svg>
