<svg width="20" height="20" viewBox="0 0 20 20" fill="none" xmlns="http://www.w3.org/2000/svg">
<g id="Frame" clip-path="url(#clip0_304_499)">
<path id="Vector" d="M4.62016 18.1026C4.51438 18.2043 4.43023 18.3264 4.37275 18.4614C4.31527 18.5964 4.28564 18.7416 4.28564 18.8883C4.28564 19.0351 4.31527 19.1803 4.37275 19.3153C4.43023 19.4503 4.51438 19.5723 4.62016 19.674C4.83736 19.8832 5.12717 20 5.4287 20C5.73024 20 6.02004 19.8832 6.23725 19.674L15.3798 10.7857C15.4856 10.684 15.5697 10.562 15.6272 10.427C15.6847 10.292 15.7143 10.1468 15.7143 10C15.7143 9.85329 15.6847 9.70806 15.6272 9.57306C15.5697 9.43805 15.4856 9.31604 15.3798 9.21434L6.23727 0.325997C6.02006 0.116846 5.73026 0 5.42872 0C5.12719 0 4.83738 0.116846 4.62018 0.325997C4.5144 0.427699 4.43025 0.549712 4.37277 0.684721C4.31529 0.819729 4.28566 0.964954 4.28566 1.11169C4.28566 1.25843 4.31529 1.40365 4.37277 1.53866C4.43025 1.67367 4.5144 1.79568 4.62018 1.89738L12.9571 10L4.62156 18.1026H4.62016Z" fill="#222222"/>
</g>
<defs>
<clipPath id="clip0_304_499">
<rect width="20" height="20" fill="white"/>
</clipPath>
</defs>
</svg>
